<?xml version='1.0' encoding='UTF-8'?>
<svg xmlns="http://www.w3.org/2000/svg" width="800" height="800" viewBox="0 0 1024 1024">
  <path d="M47.59000015258789,168.21800231933594 C52.382999420166016,134.81500244140625 80.8290023803711,109.0510025024414 115.5530014038086,109.0459976196289 L908.4420166015625,109.0459976196289 C943.1710205078125,109.0459976196289 971.6170043945312,134.80999755859375 976.4039916992188,168.21200561523438 L977.0960083007812,168.21200561523438 L977.0960083007812,175.04800415039062 C977.1370239257812,176.04600524902344 977.3930053710938,176.98800659179688 977.3930053710938,177.9969940185547 L977.3930053710938,352.8290100097656 C977.3930053710938,353.8380126953125 977.1370239257812,354.7799987792969 977.0960083007812,355.77899169921875 L977.0960083007812,405.2330017089844 L46.90399932861328,405.2330017089844 L46.90399932861328,416.31201171875 L46.606998443603516,416.31201171875 L46.606998443603516,168.21800231933594 Z M165.2480010986328,189.33200073242188 L165.2480010986328,315.4230041503906 L858.7520141601562,315.4230041503906 L858.7520141601562,189.33200073242188 Z" fill="#414040" fill-rule="nonzero"/>
  <path d="M976.4099731445312,855.781982421875 C971.6170043945312,889.1849975585938 943.1710205078125,914.948974609375 908.4520263671875,914.948974609375 L115.55799865722656,914.948974609375 C80.8290023803711,914.948974609375 52.382999420166016,889.1849975585938 47.59600067138672,855.781982421875 L46.90399932861328,855.781982421875 L46.90399932861328,848.947021484375 C46.862998962402344,847.948974609375 46.606998443603516,847.0070190429688 46.606998443603516,845.9979858398438 L46.606998443603516,468.71600341796875 C46.606998443603516,467.7070007324219 46.862998962402344,466.7650146484375 46.90399932861328,465.7659912109375 L46.90399932861328,405.2330017089844 L977.3980102539062,405.2330017089844 L977.3980102539062,855.781982421875 Z M915.8599853515625,787.7379760742188 L915.8599853515625,620.9739990234375 C915.8599853515625,620.8099975585938 915.8200073242188,620.656982421875 915.8140258789062,620.4979858398438 L915.8140258789062,619.3870239257812 L915.7020263671875,619.3870239257812 C914.927001953125,613.8854370117188 910.223876953125,609.7913818359375 904.6680297851562,609.781982421875 L775.9619750976562,609.781982421875 C770.4061279296875,609.7913818359375 765.7030029296875,613.8854370117188 764.927978515625,619.3870239257812 L764.7689819335938,619.3870239257812 L764.7689819335938,798.0440063476562 L764.8150024414062,798.0440063476562 L764.8150024414062,806.072021484375 C764.8099975585938,806.2360229492188 764.7689819335938,806.385009765625 764.7689819335938,806.5479736328125 L764.7689819335938,830.135986328125 C764.7689819335938,830.2999877929688 764.8099975585938,830.4539794921875 764.8150024414062,830.6119995117188 L764.8150024414062,831.7239990234375 L764.927978515625,831.7239990234375 C765.7030029296875,837.2255859375 770.4061279296875,841.319580078125 775.9619750976562,841.3289794921875 L904.6680297851562,841.3289794921875 C910.223876953125,841.319580078125 914.927001953125,837.2255859375 915.7020263671875,831.7239990234375 L915.8599853515625,831.7239990234375 L915.8599853515625,796.2420043945312 L915.8140258789062,796.2420043945312 L915.8140258789062,788.2139892578125 C915.8200073242188,788.0549926757812 915.8599853515625,787.9010009765625 915.8599853515625,787.7379760742188 Z M698.5570068359375,647.7520141601562 L698.5570068359375,619.3720092773438 C698.5570068359375,619.2080078125 698.5159912109375,619.0540161132812 698.510986328125,618.89501953125 L698.510986328125,617.7839965820312 L698.3989868164062,617.7839965820312 C697.6240234375,612.282470703125 692.9208374023438,608.1884155273438 687.364990234375,608.1790161132812 L558.6589965820312,608.1790161132812 C553.1031494140625,608.1884155273438 548.3999633789062,612.282470703125 547.625,617.7839965820312 L547.4660034179688,617.7839965820312 L547.4660034179688,658.0579833984375 L547.5120239257812,658.0579833984375 L547.5120239257812,666.0859985351562 C547.5070190429688,666.25 547.4660034179688,666.3989868164062 547.4660034179688,666.56298828125 L547.4660034179688,690.1500244140625 C547.4660034179688,690.3140258789062 547.5070190429688,690.468017578125 547.5120239257812,690.6270141601562 L547.5120239257812,691.7379760742188 L547.625,691.7379760742188 C548.3999633789062,697.2395629882812 553.1031494140625,701.3336181640625 558.6589965820312,701.343017578125 L687.364990234375,701.343017578125 C692.9208374023438,701.3336181640625 697.6240234375,697.2395629882812 698.3989868164062,691.7379760742188 L698.5570068359375,691.7379760742188 L698.5570068359375,656.2559814453125 L698.510986328125,656.2559814453125 L698.510986328125,648.22802734375 C698.5159912109375,648.0689697265625 698.5570068359375,647.916015625 698.5570068359375,647.7520141601562 Z M484.2040100097656,647.7520141601562 L484.2040100097656,619.3720092773438 C484.2040100097656,619.2080078125 484.1629943847656,619.0540161132812 484.1570129394531,618.89501953125 L484.1570129394531,617.7839965820312 L484.0450134277344,617.7839965820312 C483.27001953125,612.282470703125 478.5668640136719,608.1884155273438 473.010986328125,608.1790161132812 L344.30999755859375,608.1790161132812 C338.7541198730469,608.1884155273438 334.0509948730469,612.282470703125 333.2760009765625,617.7839965820312 L333.11700439453125,617.7839965820312 L333.11700439453125,658.0579833984375 L333.16400146484375,658.0579833984375 L333.16400146484375,666.0859985351562 C333.1579895019531,666.25 333.11700439453125,666.3989868164062 333.11700439453125,666.56298828125 L333.11700439453125,690.1500244140625 C333.11700439453125,690.3140258789062 333.1579895019531,690.468017578125 333.16400146484375,690.6270141601562 L333.16400146484375,691.7379760742188 L333.2760009765625,691.7379760742188 C334.0509948730469,697.2395629882812 338.7541198730469,701.3336181640625 344.30999755859375,701.343017578125 L473.0159912109375,701.343017578125 C478.5718688964844,701.3336181640625 483.2750244140625,697.2395629882812 484.04998779296875,691.7379760742188 L484.2090148925781,691.7379760742188 L484.2090148925781,656.2559814453125 L484.1629943847656,656.2559814453125 L484.1629943847656,648.22802734375 C484.1629943847656,648.0689697265625 484.2040100097656,647.916015625 484.2040100097656,647.7520141601562 Z M698.5570068359375,792.6270141601562 L698.5570068359375,764.2470092773438 C698.5570068359375,764.0830078125 698.5159912109375,763.9299926757812 698.510986328125,763.77099609375 L698.510986328125,762.6599731445312 L698.3989868164062,762.6599731445312 C697.6240234375,757.158447265625 692.9208374023438,753.0643920898438 687.364990234375,753.0549926757812 L558.6589965820312,753.0549926757812 C553.1031494140625,753.0643920898438 548.3999633789062,757.158447265625 547.625,762.6599731445312 L547.4660034179688,762.6599731445312 L547.4660034179688,802.9340209960938 L547.5120239257812,802.9340209960938 L547.5120239257812,810.9619750976562 C547.5070190429688,811.1259765625 547.4660034179688,811.2739868164062 547.4660034179688,811.43798828125 L547.4660034179688,835.0260009765625 C547.4660034179688,835.1900024414062 547.5070190429688,835.343017578125 547.5120239257812,835.5020141601562 L547.5120239257812,836.6129760742188 L547.625,836.6129760742188 C548.3999633789062,842.1145629882812 553.1031494140625,846.2086181640625 558.6589965820312,846.218017578125 L687.364990234375,846.218017578125 C692.9208374023438,846.2086181640625 697.6240234375,842.1145629882812 698.3989868164062,836.6129760742188 L698.5570068359375,836.6129760742188 L698.5570068359375,801.1320190429688 L698.510986328125,801.1320190429688 L698.510986328125,793.10302734375 C698.5159912109375,792.9450073242188 698.5570068359375,792.791015625 698.5570068359375,792.6270141601562 Z M911.656982421875,502.8760070800781 L911.656982421875,474.4960021972656 C911.656982421875,474.3320007324219 911.6160278320312,474.1789855957031 911.6110229492188,474.0199890136719 L911.6110229492188,472.90899658203125 L911.4979858398438,472.90899658203125 C910.7230834960938,467.4078063964844 906.0205078125,463.31390380859375 900.4650268554688,463.3039855957031 L771.7579956054688,463.3039855957031 C766.2021484375,463.3133850097656 761.4989624023438,467.4074401855469 760.7239990234375,472.90899658203125 L760.5659790039062,472.90899658203125 L760.5659790039062,513.1829833984375 L760.6119995117188,513.1829833984375 L760.6119995117188,521.2109985351562 C760.6069946289062,521.375 760.5659790039062,521.5230102539062 760.5659790039062,521.68701171875 L760.5659790039062,545.2750244140625 C760.5659790039062,545.4390258789062 760.6069946289062,545.5919799804688 760.6119995117188,545.7509765625 L760.6119995117188,546.8619995117188 L760.7239990234375,546.8619995117188 C761.4989624023438,552.3635864257812 766.2021484375,556.4575805664062 771.7579956054688,556.4669799804688 L900.4650268554688,556.4669799804688 C906.0205078125,556.4570922851562 910.7230834960938,552.3631591796875 911.4979858398438,546.8619995117188 L911.656982421875,546.8619995117188 L911.656982421875,511.385986328125 L911.6110229492188,511.385986328125 L911.6110229492188,503.35699462890625 C911.6160278320312,503.1940002441406 911.656982421875,503.0400085449219 911.656982421875,502.8760070800781 Z M698.5570068359375,502.8760070800781 L698.5570068359375,474.4960021972656 C698.5570068359375,474.3320007324219 698.5159912109375,474.1789855957031 698.510986328125,474.0199890136719 L698.510986328125,472.90899658203125 L698.3989868164062,472.90899658203125 C697.6240234375,467.4074401855469 692.9208374023438,463.3133850097656 687.364990234375,463.3039855957031 L558.6589965820312,463.3039855957031 C553.1031494140625,463.3133850097656 548.3999633789062,467.4074401855469 547.625,472.90899658203125 L547.4660034179688,472.90899658203125 L547.4660034179688,513.1829833984375 L547.5120239257812,513.1829833984375 L547.5120239257812,521.2109985351562 C547.5070190429688,521.375 547.4660034179688,521.5230102539062 547.4660034179688,521.68701171875 L547.4660034179688,545.2750244140625 C547.4660034179688,545.4390258789062 547.5070190429688,545.5919799804688 547.5120239257812,545.7509765625 L547.5120239257812,546.8619995117188 L547.625,546.8619995117188 C548.3999633789062,552.3635864257812 553.1031494140625,556.4575805664062 558.6589965820312,556.4669799804688 L687.364990234375,556.4669799804688 C692.9208374023438,556.4575805664062 697.6240234375,552.3635864257812 698.3989868164062,546.8619995117188 L698.5570068359375,546.8619995117188 L698.5570068359375,511.385986328125 L698.510986328125,511.385986328125 L698.510986328125,503.35699462890625 C698.5159912109375,503.1940002441406 698.5570068359375,503.0400085449219 698.5570068359375,502.8760070800781 Z M269.8500061035156,647.7520141601562 L269.8500061035156,619.3720092773438 C269.8500061035156,619.2080078125 269.8089904785156,619.0540161132812 269.8039855957031,618.89501953125 L269.8039855957031,617.7839965820312 L269.6910095214844,617.7839965820312 C268.916015625,612.282470703125 264.2128601074219,608.1884155273438 258.6570129394531,608.1790161132812 L129.95599365234375,608.1790161132812 C124.40013122558594,608.1884155273438 119.69699096679688,612.282470703125 118.9219970703125,617.7839965820312 L118.76399993896484,617.7839965820312 L118.76399993896484,658.0579833984375 L118.80999755859375,658.0579833984375 L118.80999755859375,666.0859985351562 C118.80400085449219,666.25 118.76399993896484,666.3989868164062 118.76399993896484,666.56298828125 L118.76399993896484,690.1500244140625 C118.76399993896484,690.3140258789062 118.80400085449219,690.468017578125 118.80999755859375,690.6270141601562 L118.80999755859375,691.7379760742188 L118.9219970703125,691.7379760742188 C119.69699096679688,697.2395629882812 124.40013122558594,701.3336181640625 129.95599365234375,701.343017578125 L258.6619873046875,701.343017578125 C264.2178649902344,701.3336181640625 268.9210205078125,697.2395629882812 269.6960144042969,691.7379760742188 L269.8550109863281,691.7379760742188 L269.8550109863281,656.2559814453125 L269.8089904785156,656.2559814453125 L269.8089904785156,648.22802734375 C269.8089904785156,648.0689697265625 269.8500061035156,647.916015625 269.8500061035156,647.7520141601562 Z M484.2040100097656,792.6270141601562 L484.2040100097656,764.2470092773438 C484.2040100097656,764.0830078125 484.1629943847656,763.9299926757812 484.1570129394531,763.77099609375 L484.1570129394531,762.6599731445312 L484.0450134277344,762.6599731445312 C483.27001953125,757.158447265625 478.5668640136719,753.0643920898438 473.010986328125,753.0549926757812 L344.30999755859375,753.0549926757812 C338.7541198730469,753.0643920898438 334.0509948730469,757.158447265625 333.2760009765625,762.6599731445312 L333.11700439453125,762.6599731445312 L333.11700439453125,802.9340209960938 L333.16400146484375,802.9340209960938 L333.16400146484375,810.9619750976562 C333.1579895019531,811.1259765625 333.11700439453125,811.2739868164062 333.11700439453125,811.43798828125 L333.11700439453125,835.0260009765625 C333.11700439453125,835.1900024414062 333.1579895019531,835.343017578125 333.16400146484375,835.5020141601562 L333.16400146484375,836.6129760742188 L333.2760009765625,836.6129760742188 C334.0509948730469,842.1145629882812 338.7541198730469,846.2086181640625 344.30999755859375,846.218017578125 L473.0159912109375,846.218017578125 C478.5718688964844,846.2086181640625 483.2750244140625,842.1145629882812 484.04998779296875,836.6129760742188 L484.2090148925781,836.6129760742188 L484.2090148925781,801.1320190429688 L484.1629943847656,801.1320190429688 L484.1629943847656,793.10302734375 C484.1629943847656,792.9450073242188 484.2040100097656,792.791015625 484.2040100097656,792.6270141601562 Z M484.2040100097656,502.8760070800781 L484.2040100097656,474.4960021972656 C484.2040100097656,474.3320007324219 484.1629943847656,474.1789855957031 484.1570129394531,474.0199890136719 L484.1570129394531,472.90899658203125 L484.0450134277344,472.90899658203125 C483.27001953125,467.4074401855469 478.5668640136719,463.3133850097656 473.010986328125,463.3039855957031 L344.30999755859375,463.3039855957031 C338.7541198730469,463.3133850097656 334.0509948730469,467.4074401855469 333.2760009765625,472.90899658203125 L333.11700439453125,472.90899658203125 L333.11700439453125,513.1829833984375 L333.16400146484375,513.1829833984375 L333.16400146484375,521.2109985351562 C333.1579895019531,521.375 333.11700439453125,521.5230102539062 333.11700439453125,521.68701171875 L333.11700439453125,545.2750244140625 C333.11700439453125,545.4390258789062 333.1579895019531,545.5919799804688 333.16400146484375,545.7509765625 L333.16400146484375,546.8619995117188 L333.2760009765625,546.8619995117188 C334.0509948730469,552.3635864257812 338.7541198730469,556.4575805664062 344.30999755859375,556.4669799804688 L473.0159912109375,556.4669799804688 C478.5718688964844,556.4575805664062 483.2750244140625,552.3635864257812 484.04998779296875,546.8619995117188 L484.2090148925781,546.8619995117188 L484.2090148925781,511.385986328125 L484.1629943847656,511.385986328125 L484.1629943847656,503.35699462890625 C484.1629943847656,503.1940002441406 484.2040100097656,503.0400085449219 484.2040100097656,502.8760070800781 Z M269.8500061035156,792.6270141601562 L269.8500061035156,764.2470092773438 C269.8500061035156,764.0830078125 269.8089904785156,763.9299926757812 269.8039855957031,763.77099609375 L269.8039855957031,762.6599731445312 L269.6910095214844,762.6599731445312 C268.916015625,757.158447265625 264.2128601074219,753.0643920898438 258.6570129394531,753.0549926757812 L129.95599365234375,753.0549926757812 C124.40013122558594,753.0643920898438 119.69699096679688,757.158447265625 118.9219970703125,762.6599731445312 L118.76399993896484,762.6599731445312 L118.76399993896484,802.9340209960938 L118.80999755859375,802.9340209960938 L118.80999755859375,810.9619750976562 C118.80400085449219,811.1259765625 118.76399993896484,811.2739868164062 118.76399993896484,811.43798828125 L118.76399993896484,835.0260009765625 C118.76399993896484,835.1900024414062 118.80400085449219,835.343017578125 118.80999755859375,835.5020141601562 L118.80999755859375,836.6129760742188 L118.9219970703125,836.6129760742188 C119.69699096679688,842.1145629882812 124.40013122558594,846.2086181640625 129.95599365234375,846.218017578125 L258.6619873046875,846.218017578125 C264.2178649902344,846.2086181640625 268.9210205078125,842.1145629882812 269.6960144042969,836.6129760742188 L269.8550109863281,836.6129760742188 L269.8550109863281,801.1320190429688 L269.8089904785156,801.1320190429688 L269.8089904785156,793.10302734375 C269.8089904785156,792.9450073242188 269.8500061035156,792.791015625 269.8500061035156,792.6270141601562 Z M269.8500061035156,502.8760070800781 L269.8500061035156,474.4960021972656 C269.8500061035156,474.3320007324219 269.8089904785156,474.1789855957031 269.8039855957031,474.0199890136719 L269.8039855957031,472.90899658203125 L269.6910095214844,472.90899658203125 C268.916015625,467.4074401855469 264.2128601074219,463.3133850097656 258.6570129394531,463.3039855957031 L129.95599365234375,463.3039855957031 C124.40013122558594,463.3133850097656 119.69699096679688,467.4074401855469 118.9219970703125,472.90899658203125 L118.76399993896484,472.90899658203125 L118.76399993896484,513.1829833984375 L118.80999755859375,513.1829833984375 L118.80999755859375,521.2109985351562 C118.80400085449219,521.375 118.76399993896484,521.5230102539062 118.76399993896484,521.68701171875 L118.76399993896484,545.2750244140625 C118.76399993896484,545.4390258789062 118.80400085449219,545.5919799804688 118.80999755859375,545.7509765625 L118.80999755859375,546.8619995117188 L118.9219970703125,546.8619995117188 C119.69699096679688,552.3635864257812 124.40013122558594,556.4575805664062 129.95599365234375,556.4669799804688 L258.6619873046875,556.4669799804688 C264.2178649902344,556.4575805664062 268.9210205078125,552.3635864257812 269.6960144042969,546.8619995117188 L269.8550109863281,546.8619995117188 L269.8550109863281,511.385986328125 L269.8089904785156,511.385986328125 L269.8089904785156,503.35699462890625 C269.8089904785156,503.1940002441406 269.8500061035156,503.0400085449219 269.8500061035156,502.8760070800781 Z" fill="#E6E4E2" fill-rule="nonzero"/>
  <path d="M165.2480010986328,189.33200073242188 L858.7520141601562,189.33200073242188 L858.7520141601562,315.4230041503906 L165.2480010986328,315.4230041503906 Z" fill="#FFF" fill-rule="nonzero"/>
  <path d="M484.2040100097656,647.7520141601562 C484.2040100097656,647.916015625 484.1629943847656,648.0689697265625 484.1629943847656,648.22802734375 L484.1629943847656,656.2559814453125 L484.2090148925781,656.2559814453125 L484.2090148925781,691.7379760742188 L484.04998779296875,691.7379760742188 C483.2750244140625,697.2395629882812 478.5718688964844,701.3336181640625 473.0159912109375,701.343017578125 L344.30999755859375,701.343017578125 C338.7541198730469,701.3336181640625 334.0509948730469,697.2395629882812 333.2760009765625,691.7379760742188 L333.16400146484375,691.7379760742188 L333.16400146484375,690.6270141601562 C333.1579895019531,690.468017578125 333.11700439453125,690.3140258789062 333.11700439453125,690.1500244140625 L333.11700439453125,666.56298828125 C333.11700439453125,666.3989868164062 333.1579895019531,666.25 333.16400146484375,666.0859985351562 L333.16400146484375,658.0579833984375 L333.11700439453125,658.0579833984375 L333.11700439453125,617.7839965820312 L333.2760009765625,617.7839965820312 C334.0509948730469,612.282470703125 338.7541198730469,608.1884155273438 344.30999755859375,608.1790161132812 L473.010986328125,608.1790161132812 C478.5668640136719,608.1884155273438 483.27001953125,612.282470703125 484.0450134277344,617.7839965820312 L484.1570129394531,617.7839965820312 L484.1570129394531,618.89501953125 C484.1629943847656,619.0540161132812 484.2040100097656,619.2080078125 484.2040100097656,619.3720092773438 Z M698.5570068359375,502.8760070800781 C698.5570068359375,503.0400085449219 698.5159912109375,503.1940002441406 698.510986328125,503.35699462890625 L698.510986328125,511.385986328125 L698.5570068359375,511.385986328125 L698.5570068359375,546.8619995117188 L698.3989868164062,546.8619995117188 C697.6240234375,552.3635864257812 692.9208374023438,556.4575805664062 687.364990234375,556.4669799804688 L558.6589965820312,556.4669799804688 C553.1031494140625,556.4575805664062 548.3999633789062,552.3635864257812 547.625,546.8619995117188 L547.5120239257812,546.8619995117188 L547.5120239257812,545.7509765625 C547.5070190429688,545.5919799804688 547.4660034179688,545.4390258789062 547.4660034179688,545.2750244140625 L547.4660034179688,521.68701171875 C547.4660034179688,521.5230102539062 547.5070190429688,521.375 547.5120239257812,521.2109985351562 L547.5120239257812,513.1829833984375 L547.4660034179688,513.1829833984375 L547.4660034179688,472.90899658203125 L547.625,472.90899658203125 C548.3999633789062,467.4074401855469 553.1031494140625,463.3133850097656 558.6589965820312,463.3039855957031 L687.364990234375,463.3039855957031 C692.9208374023438,463.3133850097656 697.6240234375,467.4074401855469 698.3989868164062,472.90899658203125 L698.510986328125,472.90899658203125 L698.510986328125,474.0199890136719 C698.5159912109375,474.1789855957031 698.5570068359375,474.3320007324219 698.5570068359375,474.4960021972656 Z M269.8500061035156,647.7520141601562 C269.8500061035156,647.916015625 269.8089904785156,648.0689697265625 269.8089904785156,648.22802734375 L269.8089904785156,656.2559814453125 L269.8550109863281,656.2559814453125 L269.8550109863281,691.7379760742188 L269.6960144042969,691.7379760742188 C268.9210205078125,697.2395629882812 264.2178649902344,701.3336181640625 258.6619873046875,701.343017578125 L129.95599365234375,701.343017578125 C124.40013122558594,701.3336181640625 119.69699096679688,697.2395629882812 118.9219970703125,691.7379760742188 L118.80999755859375,691.7379760742188 L118.80999755859375,690.6270141601562 C118.80400085449219,690.468017578125 118.76399993896484,690.3140258789062 118.76399993896484,690.1500244140625 L118.76399993896484,666.56298828125 C118.76399993896484,666.3989868164062 118.80400085449219,666.25 118.80999755859375,666.0859985351562 L118.80999755859375,658.0579833984375 L118.76399993896484,658.0579833984375 L118.76399993896484,617.7839965820312 L118.9219970703125,617.7839965820312 C119.69699096679688,612.282470703125 124.40013122558594,608.1884155273438 129.95599365234375,608.1790161132812 L258.6570129394531,608.1790161132812 C264.2128601074219,608.1884155273438 268.916015625,612.282470703125 269.6910095214844,617.7839965820312 L269.8039855957031,617.7839965820312 L269.8039855957031,618.89501953125 C269.8089904785156,619.0540161132812 269.8500061035156,619.2080078125 269.8500061035156,619.3720092773438 Z M484.2040100097656,792.6270141601562 C484.2040100097656,792.791015625 484.1629943847656,792.9450073242188 484.1629943847656,793.10302734375 L484.1629943847656,801.1320190429688 L484.2090148925781,801.1320190429688 L484.2090148925781,836.6129760742188 L484.04998779296875,836.6129760742188 C483.2750244140625,842.1145629882812 478.5718688964844,846.2086181640625 473.0159912109375,846.218017578125 L344.30999755859375,846.218017578125 C338.7541198730469,846.2086181640625 334.0509948730469,842.1145629882812 333.2760009765625,836.6129760742188 L333.16400146484375,836.6129760742188 L333.16400146484375,835.5020141601562 C333.1579895019531,835.343017578125 333.11700439453125,835.1900024414062 333.11700439453125,835.0260009765625 L333.11700439453125,811.43798828125 C333.11700439453125,811.2739868164062 333.1579895019531,811.1259765625 333.16400146484375,810.9619750976562 L333.16400146484375,802.9340209960938 L333.11700439453125,802.9340209960938 L333.11700439453125,762.6599731445312 L333.2760009765625,762.6599731445312 C334.0509948730469,757.158447265625 338.7541198730469,753.0643920898438 344.30999755859375,753.0549926757812 L473.010986328125,753.0549926757812 C478.5668640136719,753.0643920898438 483.27001953125,757.158447265625 484.0450134277344,762.6599731445312 L484.1570129394531,762.6599731445312 L484.1570129394531,763.77099609375 C484.1629943847656,763.9299926757812 484.2040100097656,764.0830078125 484.2040100097656,764.2470092773438 Z M484.2040100097656,502.8760070800781 C484.2040100097656,503.0400085449219 484.1629943847656,503.1940002441406 484.1629943847656,503.35699462890625 L484.1629943847656,511.385986328125 L484.2090148925781,511.385986328125 L484.2090148925781,546.8619995117188 L484.04998779296875,546.8619995117188 C483.2750244140625,552.3635864257812 478.5718688964844,556.4575805664062 473.0159912109375,556.4669799804688 L344.30999755859375,556.4669799804688 C338.7541198730469,556.4575805664062 334.0509948730469,552.3635864257812 333.2760009765625,546.8619995117188 L333.16400146484375,546.8619995117188 L333.16400146484375,545.7509765625 C333.1579895019531,545.5919799804688 333.11700439453125,545.4390258789062 333.11700439453125,545.2750244140625 L333.11700439453125,521.68701171875 C333.11700439453125,521.5230102539062 333.1579895019531,521.375 333.16400146484375,521.2109985351562 L333.16400146484375,513.1829833984375 L333.11700439453125,513.1829833984375 L333.11700439453125,472.90899658203125 L333.2760009765625,472.90899658203125 C334.0509948730469,467.4074401855469 338.7541198730469,463.3133850097656 344.30999755859375,463.3039855957031 L473.010986328125,463.3039855957031 C478.5668640136719,463.3133850097656 483.27001953125,467.4074401855469 484.0450134277344,472.90899658203125 L484.1570129394531,472.90899658203125 L484.1570129394531,474.0199890136719 C484.1629943847656,474.1789855957031 484.2040100097656,474.3320007324219 484.2040100097656,474.4960021972656 Z M269.8500061035156,792.6270141601562 C269.8500061035156,792.791015625 269.8089904785156,792.9450073242188 269.8089904785156,793.10302734375 L269.8089904785156,801.1320190429688 L269.8550109863281,801.1320190429688 L269.8550109863281,836.6129760742188 L269.6960144042969,836.6129760742188 C268.9210205078125,842.1145629882812 264.2178649902344,846.2086181640625 258.6619873046875,846.218017578125 L129.95599365234375,846.218017578125 C124.40013122558594,846.2086181640625 119.69699096679688,842.1145629882812 118.9219970703125,836.6129760742188 L118.80999755859375,836.6129760742188 L118.80999755859375,835.5020141601562 C118.80400085449219,835.343017578125 118.76399993896484,835.1900024414062 118.76399993896484,835.0260009765625 L118.76399993896484,811.43798828125 C118.76399993896484,811.2739868164062 118.80400085449219,811.1259765625 118.80999755859375,810.9619750976562 L118.80999755859375,802.9340209960938 L118.76399993896484,802.9340209960938 L118.76399993896484,762.6599731445312 L118.9219970703125,762.6599731445312 C119.69699096679688,757.158447265625 124.40013122558594,753.0643920898438 129.95599365234375,753.0549926757812 L258.6570129394531,753.0549926757812 C264.2128601074219,753.0643920898438 268.916015625,757.158447265625 269.6910095214844,762.6599731445312 L269.8039855957031,762.6599731445312 L269.8039855957031,763.77099609375 C269.8089904785156,763.9299926757812 269.8500061035156,764.0830078125 269.8500061035156,764.2470092773438 Z M269.8500061035156,502.8760070800781 C269.8500061035156,503.0400085449219 269.8089904785156,503.1940002441406 269.8089904785156,503.35699462890625 L269.8089904785156,511.385986328125 L269.8550109863281,511.385986328125 L269.8550109863281,546.8619995117188 L269.6960144042969,546.8619995117188 C268.9210205078125,552.3635864257812 264.2178649902344,556.4575805664062 258.6619873046875,556.4669799804688 L129.95599365234375,556.4669799804688 C124.40013122558594,556.4575805664062 119.69699096679688,552.3635864257812 118.9219970703125,546.8619995117188 L118.80999755859375,546.8619995117188 L118.80999755859375,545.7509765625 C118.80400085449219,545.5919799804688 118.76399993896484,545.4390258789062 118.76399993896484,545.2750244140625 L118.76399993896484,521.68701171875 C118.76399993896484,521.5230102539062 118.80400085449219,521.375 118.80999755859375,521.2109985351562 L118.80999755859375,513.1829833984375 L118.76399993896484,513.1829833984375 L118.76399993896484,472.90899658203125 L118.9219970703125,472.90899658203125 C119.69699096679688,467.4074401855469 124.40013122558594,463.3133850097656 129.95599365234375,463.3039855957031 L258.6570129394531,463.3039855957031 C264.2128601074219,463.3133850097656 268.916015625,467.4074401855469 269.6910095214844,472.90899658203125 L269.8039855957031,472.90899658203125 L269.8039855957031,474.0199890136719 C269.8089904785156,474.1789855957031 269.8500061035156,474.3320007324219 269.8500061035156,474.4960021972656 Z" fill="#807E7E" fill-rule="nonzero"/>
  <path d="M911.656982421875,502.8760070800781 C911.656982421875,503.0400085449219 911.6160278320312,503.1940002441406 911.6110229492188,503.35699462890625 L911.6110229492188,511.385986328125 L911.656982421875,511.385986328125 L911.656982421875,546.8619995117188 L911.4979858398438,546.8619995117188 C910.7230834960938,552.3631591796875 906.0205078125,556.4570922851562 900.4650268554688,556.4669799804688 L771.7579956054688,556.4669799804688 C766.2021484375,556.4575805664062 761.4989624023438,552.3635864257812 760.7239990234375,546.8619995117188 L760.6119995117188,546.8619995117188 L760.6119995117188,545.7509765625 C760.6069946289062,545.5919799804688 760.5659790039062,545.4390258789062 760.5659790039062,545.2750244140625 L760.5659790039062,521.68701171875 C760.5659790039062,521.5230102539062 760.6069946289062,521.375 760.6119995117188,521.2109985351562 L760.6119995117188,513.1829833984375 L760.5659790039062,513.1829833984375 L760.5659790039062,472.90899658203125 L760.7239990234375,472.90899658203125 C761.4989624023438,467.4074401855469 766.2021484375,463.3133850097656 771.7579956054688,463.3039855957031 L900.4650268554688,463.3039855957031 C906.0205078125,463.31390380859375 910.7230834960938,467.4078063964844 911.4979858398438,472.90899658203125 L911.6110229492188,472.90899658203125 L911.6110229492188,474.0199890136719 C911.6160278320312,474.1789855957031 911.656982421875,474.3320007324219 911.656982421875,474.4960021972656 Z" fill="#F38181" fill-rule="nonzero"/>
  <path d="M915.8599853515625,787.7379760742188 C915.8599853515625,787.9010009765625 915.8200073242188,788.0549926757812 915.8140258789062,788.2139892578125 L915.8140258789062,796.2420043945312 L915.8599853515625,796.2420043945312 L915.8599853515625,831.7239990234375 L915.7020263671875,831.7239990234375 C914.927001953125,837.2255859375 910.223876953125,841.319580078125 904.6680297851562,841.3289794921875 L775.9619750976562,841.3289794921875 C770.4061279296875,841.319580078125 765.7030029296875,837.2255859375 764.927978515625,831.7239990234375 L764.8150024414062,831.7239990234375 L764.8150024414062,830.6119995117188 C764.8099975585938,830.4539794921875 764.7689819335938,830.2999877929688 764.7689819335938,830.135986328125 L764.7689819335938,806.5479736328125 C764.7689819335938,806.385009765625 764.8099975585938,806.2360229492188 764.8150024414062,806.072021484375 L764.8150024414062,798.0440063476562 L764.7689819335938,798.0440063476562 L764.7689819335938,619.3870239257812 L764.927978515625,619.3870239257812 C765.7030029296875,613.8854370117188 770.4061279296875,609.7913818359375 775.9619750976562,609.781982421875 L904.6680297851562,609.781982421875 C910.223876953125,609.7913818359375 914.927001953125,613.8854370117188 915.7020263671875,619.3870239257812 L915.8140258789062,619.3870239257812 L915.8140258789062,620.4979858398438 C915.8200073242188,620.656982421875 915.8599853515625,620.8099975585938 915.8599853515625,620.9739990234375 Z" fill="#5B5144" fill-rule="nonzero"/>
  <path d="M698.557,647.752 L698.557,619.372 C698.557,619.208 698.516,619.054 698.511,618.895 L698.511,617.784 L698.399,617.784 C697.6240125687532,612.2824412557168 692.9208676972678,608.1883949904804 687.365,608.179 L558.659,608.179 C553.1031323027321,608.1883949904804 548.3999874312467,612.2824412557167 547.625,617.784 L547.466,617.784 L547.466,658.058 L547.512,658.058 L547.512,666.086 C547.507,666.25 547.466,666.399 547.466,666.563 L547.466,690.15 C547.466,690.314 547.507,690.468 547.512,690.627 L547.512,691.738 L547.625,691.738 C548.3999874312467,697.2395587442833 553.1031323027321,701.3336050095195 558.659,701.343 L687.365,701.343 C692.9208676972678,701.3336050095194 697.6240125687531,697.2395587442832 698.399,691.738 L698.557,691.738 L698.557,656.256 L698.511,656.256 L698.511,648.228 C698.516,648.069 698.557,647.916 698.557,647.752 Z M698.557,792.627 L698.557,764.247 C698.557,764.083 698.516,763.93 698.511,763.771 L698.511,762.66 L698.399,762.66 C697.6240125687532,757.1584412557165 692.9208676972678,753.0643949904802 687.365,753.055 L558.659,753.055 C553.1031323027321,753.0643949904802 548.3999874312467,757.1584412557165 547.625,762.66 L547.466,762.66 L547.466,802.934 L547.512,802.934 L547.512,810.962 C547.507,811.126 547.466,811.274 547.466,811.438 L547.466,835.026 C547.466,835.19 547.507,835.343 547.512,835.502 L547.512,836.613 L547.625,836.613 C548.3999874312467,842.1145587442833 553.1031323027321,846.2086050095196 558.659,846.218 L687.365,846.218 C692.9208676972678,846.2086050095196 697.6240125687532,842.1145587442833 698.399,836.613 L698.557,836.613 L698.557,801.132 L698.511,801.132 L698.511,793.103 C698.516,792.945 698.557,792.791 698.557,792.627 Z" fill="#807E7E" fill-rule="nonzero"/>
</svg>
