<?xml version='1.0' encoding='UTF-8'?>
<svg xmlns="http://www.w3.org/2000/svg" width="800" height="800" viewBox="0 0 1024 1024">
  <path d="M47.93299865722656,167.19400024414062 C52.736000061035156,133.6929931640625 81.2699966430664,107.85800170898438 116.09600067138672,107.85299682617188 L911.3400268554688,107.85299682617188 C946.1710205078125,107.85299682617188 974.7000122070312,133.6929931640625 979.5020141601562,167.19400024414062 L980.1929931640625,167.19400024414062 L980.1929931640625,174.0489959716797 C980.2340087890625,175.05299377441406 980.489990234375,175.9949951171875 980.489990234375,177.00900268554688 L980.489990234375,352.3529968261719 C980.489990234375,353.36700439453125 980.2340087890625,354.3089904785156 980.1929931640625,355.31298828125 L980.1929931640625,404.9150085449219 L47.242000579833984,404.9150085449219 L47.242000579833984,416.031005859375 L46.94499969482422,416.031005859375 L46.94499969482422,167.19400024414062 Z M455.9159851074219,325.9549865722656 L481.7820129394531,325.9549865722656 L481.7820129394531,205.81399536132812 L442.4700012207031,205.81399536132812 L424.60699462890625,293.9599914550781 L406.7330017089844,205.81399536132812 L367.9330139160156,205.81399536132812 L367.9330139160156,325.9549865722656 L393.2879943847656,325.9549865722656 L393.2879943847656,239.50799560546875 L411.8429870605469,325.9549865722656 L437.3710021972656,325.9549865722656 L455.9159851074219,239.50799560546875 Z M550.0570068359375,325.9549865722656 L578.468017578125,325.9549865722656 L554.1430053710938,205.81399536132812 L515.343017578125,205.81399536132812 L491.00799560546875,325.9549865722656 L519.4290161132812,325.9549865722656 L523.6840209960938,298.552001953125 L545.9760131835938,298.552001953125 Z M629.5599975585938,283.7560119628906 L659.5070190429688,205.81900024414062 L630.405029296875,205.81900024414062 L615.7670288085938,258.9129943847656 L601.1389770507812,205.81900024414062 L572.5490112304688,205.81900024414062 L601.1389770507812,283.7560119628906 L601.1389770507812,325.9549865722656 L629.5599975585938,325.9549865722656 Z M535.0859985351562,224.8699951171875 L543.0889892578125,278.3080139160156 L526.9249877929688,278.3080139160156 Z" fill="#F38181" fill-rule="nonzero"/>
  <path d="M979.5070190429688,856.8060302734375 C974.7050170898438,890.3070068359375 946.1710205078125,916.1420288085938 911.3400268554688,916.1370239257812 L116.09600067138672,916.1370239257812 C81.26499938964844,916.1370239257812 52.736000061035156,890.2960205078125 47.93299865722656,856.7960205078125 L47.242000579833984,856.7960205078125 L47.242000579833984,849.9400024414062 C47.20100021362305,848.9420166015625 46.94499969482422,848 46.94499969482422,846.9860229492188 L46.94499969482422,468.5820007324219 C46.94499969482422,467.5740051269531 47.20100021362305,466.6319885253906 47.242000579833984,465.62799072265625 L47.242000579833984,404.9150085449219 L980.4949951171875,404.9150085449219 L980.4949951171875,856.8060302734375 Z M654.8790283203125,742.906982421875 C661.9921264648438,732.0929565429688 661.9838256835938,719.7999267578125 661.9754638671875,707.4376831054688 L661.975341796875,707.2785034179688 L661.9752807617188,707.1192626953125 C661.9750366210938,706.6939086914062 661.9747924804688,706.2684326171875 661.9749755859375,705.843017578125 L661.9749755859375,668.4569702148438 C661.9749755859375,657.177978515625 661.0020141601562,653.31201171875 658.7490234375,647.5059814453125 C654.239013671875,636.5490112304688 640.3740234375,622.6939697265625 612.6589965820312,622.6939697265625 C592.3579711914062,622.6939697265625 584.2999877929688,631.0709838867188 577.85302734375,637.5170288085938 L577.85302734375,595.2969970703125 L577.8528442382812,595.0319213867188 C577.8477783203125,589.3179321289062 577.8339233398438,573.7009887695312 596.8690185546875,573.7009887695312 C613.7105102539062,573.7009887695312 613.6498413085938,587.8892822265625 613.62841796875,592.8976440429688 C613.627685546875,593.0645751953125 613.6270141601562,593.2213134765625 613.6270141601562,593.3670043945312 L613.6270141601562,605.2919921875 L660.6849975585938,605.2919921875 L660.6849975585938,589.5009765625 C660.6849975585938,575.3140258789062 659.7169799804688,569.8359985351562 656.8090209960938,563.072021484375 C646.8200073242188,538.5780029296875 616.8519897460938,533.0999755859375 593.6439819335938,533.0999755859375 C564.3159790039062,533.0999755859375 549.1710205078125,541.4760131835938 540.4669799804688,552.114990234375 C530.1500244140625,564.0399780273438 529.1829833984375,578.2219848632812 528.864990234375,583.3729858398438 C528.5380249023438,587.5609741210938 528.5380249023438,592.072021484375 528.5380249023438,596.2650146484375 L528.5380249023438,699.7249755859375 C528.5380249023438,711.322021484375 528.5380249023438,722.6060180664062 532.4030151367188,733.885009765625 C535.3109741210938,741.6170043945312 539.177001953125,747.739990234375 545.6229858398438,753.218994140625 C553.9990234375,760.3099975585938 569.4769897460938,768.3690185546875 594.9290161132812,768.3690185546875 L595.3736572265625,768.3692626953125 C603.2670288085938,768.3755493164062 626.8772583007812,768.3943481445312 645.2069702148438,753.218994140625 C646.8200073242188,751.9329833984375 651.6530151367188,748.0679931640625 654.8790283203125,742.906982421875 Z M489.54400634765625,646.2210083007812 C501.5192565917969,630.8644409179688 501.49945068359375,616.103271484375 501.47515869140625,598.0223999023438 L501.47509765625,597.987060546875 L501.47503662109375,597.9506225585938 L501.4749755859375,597.9130859375 C501.473876953125,597.0523071289062 501.4727478027344,596.18408203125 501.4729919433594,595.3079833984375 C501.4729919433594,579.5170288085938 500.5060119628906,571.7860107421875 497.6080017089844,564.6950073242188 C494.05999755859375,555.9910278320312 487.2909851074219,550.1900024414062 485.0379943847656,548.260009765625 C476.0119934082031,540.8460083007812 461.1889953613281,532.7869873046875 434.760009765625,532.7869873046875 C406.7229919433594,532.7869873046875 390.927001953125,540.8410034179688 381.906005859375,549.5449829101562 C368.3689880371094,562.43701171875 367.4010009765625,577.5869750976562 367.4010009765625,594.6619873046875 L367.4010009765625,623.989990234375 L415.0989990234375,623.989990234375 L415.0989990234375,592.0819702148438 C415.0989990234375,587.2490234375 415.4209899902344,584.6729736328125 416.0669860839844,582.7379760742188 C417.6789855957031,577.9000244140625 421.86199951171875,571.135986328125 433.468994140625,571.135986328125 C450.87200927734375,570.81298828125 450.87200927734375,587.2490234375 450.87200927734375,591.7639770507812 L450.87200927734375,608.52197265625 C450.87200927734375,623.989990234375 447.0069885253906,628.822998046875 427.9909973144531,646.2260131835938 C414.77099609375,658.4730224609375 400.9159851074219,670.0750122070312 388.99200439453125,683.2839965820312 C371.9070129394531,701.9829711914062 365.46600341796875,720.9979858398438 365.46600341796875,746.1320190429688 L365.46600341796875,764.5029907226562 L500.8280029296875,764.5029907226562 L500.8280029296875,721.3109741210938 L423.1579895019531,721.3109741210938 C427.6629943847656,706.1710205078125 431.2170104980469,701.6500244140625 450.87200927734375,683.2789916992188 C456.9909973144531,677.4840087890625 463.43701171875,671.6829833984375 469.55999755859375,665.8759765625 C480.5220031738281,656.2100219726562 484.7099914550781,652.0269775390625 489.54400634765625,646.2210083007812 Z M613.3040161132812,677.489013671875 C613.6270141601562,684.2520141601562 613.6270141601562,691.0260009765625 613.6320190429688,697.4619750976562 C613.6320190429688,711.9669799804688 613.3040161132812,720.0260009765625 607.5079956054688,724.8590087890625 C604.927978515625,726.7940063476562 602.0250244140625,728.406982421875 595.9010009765625,728.406982421875 C577.29736328125,728.406982421875 577.4534301757812,713.9717407226562 577.5233764648438,707.504150390625 C577.52734375,707.1386108398438 577.531005859375,706.798583984375 577.531005859375,706.4879760742188 L577.531005859375,678.7739868164062 C577.531005859375,678.4426879882812 577.5303955078125,678.1094970703125 577.5297241210938,677.7747192382812 C577.51611328125,670.6171875 577.5011596679688,662.7391967773438 583.6599731445312,657.5050048828125 C587.197021484375,654.6069946289062 590.7509765625,653.9569702148438 595.583984375,653.9569702148438 C613.71337890625,653.9569702148438 613.4236450195312,670.3994140625 613.3173217773438,676.4329223632812 C613.3102416992188,676.8334350585938 613.3040161132812,677.1881103515625 613.3040161132812,677.489013671875 Z" fill="#E6E4E2" fill-rule="nonzero"/>
  <path d="M654.8790283203125,742.906982421875 C651.6530151367188,748.0679931640625 646.8200073242188,751.9329833984375 645.2069702148438,753.218994140625 C626.8772583007812,768.3943481445312 603.2670288085938,768.3755493164062 595.3736572265625,768.3692626953125 L594.9290161132812,768.3690185546875 C569.4769897460938,768.3690185546875 553.9990234375,760.3099975585938 545.6229858398438,753.218994140625 C539.177001953125,747.739990234375 535.3109741210938,741.6170043945312 532.4030151367188,733.885009765625 C528.5380249023438,722.6060180664062 528.5380249023438,711.322021484375 528.5380249023438,699.7249755859375 L528.5380249023438,596.2650146484375 C528.5380249023438,592.072021484375 528.5380249023438,587.5609741210938 528.864990234375,583.3729858398438 C529.1829833984375,578.2219848632812 530.1500244140625,564.0399780273438 540.4669799804688,552.114990234375 C549.1710205078125,541.4760131835938 564.3159790039062,533.0999755859375 593.6439819335938,533.0999755859375 C616.8519897460938,533.0999755859375 646.8200073242188,538.5780029296875 656.8090209960938,563.072021484375 C659.7169799804688,569.8359985351562 660.6849975585938,575.3140258789062 660.6849975585938,589.5009765625 L660.6849975585938,605.2919921875 L613.6270141601562,605.2919921875 L613.6270141601562,593.3670043945312 C613.6270141601562,593.2213134765625 613.627685546875,593.0645751953125 613.62841796875,592.8976440429688 C613.6498413085938,587.8892822265625 613.7105102539062,573.7009887695312 596.8690185546875,573.7009887695312 C577.8339233398438,573.7009887695312 577.8477783203125,589.3179321289062 577.8528442382812,595.0319213867188 L577.85302734375,595.2969970703125 L577.85302734375,637.5170288085938 C584.2999877929688,631.0709838867188 592.3579711914062,622.6939697265625 612.6589965820312,622.6939697265625 C640.3740234375,622.6939697265625 654.239013671875,636.5490112304688 658.7490234375,647.5059814453125 C661.0020141601562,653.31201171875 661.9749755859375,657.177978515625 661.9749755859375,668.4569702148438 L661.9749755859375,705.843017578125 C661.9747924804688,706.321533203125 661.97509765625,706.8001098632812 661.975341796875,707.2785034179688 L661.9754638671875,707.4376831054688 C661.9838256835938,719.7999267578125 661.9921264648438,732.0929565429688 654.8790283203125,742.906982421875 Z M489.54400634765625,646.2210083007812 C484.7099914550781,652.0269775390625 480.5220031738281,656.2100219726562 469.55999755859375,665.8759765625 C463.43701171875,671.6829833984375 456.9909973144531,677.4840087890625 450.87200927734375,683.2789916992188 C431.2170104980469,701.6500244140625 427.6629943847656,706.1710205078125 423.1579895019531,721.3109741210938 L500.8280029296875,721.3109741210938 L500.8280029296875,764.5029907226562 L365.46600341796875,764.5029907226562 L365.46600341796875,746.1320190429688 C365.46600341796875,720.9979858398438 371.9070129394531,701.9829711914062 388.99200439453125,683.2839965820312 C400.9159851074219,670.0750122070312 414.77099609375,658.4730224609375 427.9909973144531,646.2260131835938 C447.0069885253906,628.822998046875 450.87200927734375,623.989990234375 450.87200927734375,608.52197265625 L450.87200927734375,591.7639770507812 C450.87200927734375,587.2490234375 450.87200927734375,570.81298828125 433.468994140625,571.135986328125 C421.86199951171875,571.135986328125 417.6789855957031,577.9000244140625 416.0669860839844,582.7379760742188 C415.4209899902344,584.6729736328125 415.0989990234375,587.2490234375 415.0989990234375,592.0819702148438 L415.0989990234375,623.989990234375 L367.4010009765625,623.989990234375 L367.4010009765625,594.6619873046875 C367.4010009765625,577.5869750976562 368.3689880371094,562.43701171875 381.906005859375,549.5449829101562 C390.927001953125,540.8410034179688 406.7229919433594,532.7869873046875 434.760009765625,532.7869873046875 C461.1889953613281,532.7869873046875 476.0119934082031,540.8460083007812 485.0379943847656,548.260009765625 C487.2909851074219,550.1900024414062 494.05999755859375,555.9910278320312 497.6080017089844,564.6950073242188 C500.5060119628906,571.7860107421875 501.4729919433594,579.5170288085938 501.4729919433594,595.3079833984375 C501.4727478027344,596.209228515625 501.47393798828125,597.1021118164062 501.47509765625,597.987060546875 L501.47515869140625,598.0223999023438 C501.49945068359375,616.103271484375 501.5192565917969,630.8644409179688 489.54400634765625,646.2210083007812 Z M613.3040161132812,677.489013671875 C613.3040161132812,677.1881103515625 613.3102416992188,676.8334350585938 613.3173217773438,676.4329223632812 C613.4236450195312,670.3994140625 613.71337890625,653.9569702148438 595.583984375,653.9569702148438 C590.7509765625,653.9569702148438 587.197021484375,654.6069946289062 583.6599731445312,657.5050048828125 C577.5011596679688,662.7391967773438 577.51611328125,670.6171875 577.5297241210938,677.7747192382812 C577.5303955078125,678.1094970703125 577.531005859375,678.4426879882812 577.531005859375,678.7739868164062 L577.531005859375,706.4879760742188 C577.531005859375,706.798583984375 577.52734375,707.1386108398438 577.5233764648438,707.504150390625 C577.4534301757812,713.9717407226562 577.29736328125,728.406982421875 595.9010009765625,728.406982421875 C602.0250244140625,728.406982421875 604.927978515625,726.7940063476562 607.5079956054688,724.8590087890625 C613.3040161132812,720.0260009765625 613.6320190429688,711.9669799804688 613.6320190429688,697.4619750976562 C613.6270141601562,691.0260009765625 613.6270141601562,684.2520141601562 613.3040161132812,677.489013671875 Z" fill="#5B5144" fill-rule="nonzero"/>
  <path d="M455.916,325.955 L455.916,239.508 L437.371,325.955 L411.843,325.955 L393.288,239.508 L393.288,325.955 L367.933,325.955 L367.933,205.814 L406.733,205.814 L424.607,293.96 L442.47,205.814 L481.782,205.814 L481.782,325.955 L455.916,325.955 Z M550.057,325.955 L545.976,298.552 L523.684,298.552 L519.429,325.955 L491.008,325.955 L515.343,205.814 L554.143,205.814 L578.468,325.955 L550.057,325.955 Z M535.086,224.87 L526.925,278.308 L543.089,278.308 L535.086,224.87 Z M629.56,283.756 L629.56,325.955 L601.139,325.955 L601.139,283.756 L572.549,205.819 L601.139,205.819 L615.767,258.913 L630.405,205.819 L659.507,205.819 L629.56,283.756 Z" fill="#FFF" fill-rule="nonzero"/>
</svg>
