<?xml version='1.0' encoding='UTF-8'?>
<svg xmlns="http://www.w3.org/2000/svg" width="800" height="800" viewBox="0 0 1024 1024">
  <path d="M39.762001037597656,512 C39.762001037597656,258.2593994140625 251.19015502929688,52.5620002746582 512,52.5620002746582 C772.8098754882812,52.5620002746582 984.2379760742188,258.2593994140625 984.2379760742188,512 C984.2379760742188,765.7406005859375 772.8098754882812,971.43798828125 512,971.43798828125 C251.19015502929688,971.43798828125 39.762001037597656,765.7406005859375 39.762001037597656,512 Z M94.09500122070312,512 C94.09500122070312,736.5446166992188 281.19744873046875,918.573974609375 512,918.573974609375 C742.8025512695312,918.573974609375 929.905029296875,736.5446166992188 929.905029296875,512 C929.905029296875,287.45538330078125 742.8025512695312,105.4260025024414 512,105.4260025024414 C281.19744873046875,105.4260025024414 94.09500122070312,287.45538330078125 94.09500122070312,512 Z" fill="#C8C6C4" fill-rule="nonzero"/>
  <path d="M94.09500122070312,512 C94.09500122070312,287.45538330078125 281.19744873046875,105.4260025024414 512,105.4260025024414 C742.8025512695312,105.4260025024414 929.905029296875,287.45538330078125 929.905029296875,512 C929.905029296875,736.5446166992188 742.8025512695312,918.573974609375 512,918.573974609375 C281.19744873046875,918.573974609375 94.09500122070312,736.5446166992188 94.09500122070312,512 Z M528.7169799804688,472.94000244140625 L528.7169799804688,253.35800170898438 C528.7169799804688,244.3719940185547 521.2310180664062,237.0919952392578 512,237.0919952392578 C502.7690124511719,237.0919952392578 495.2829895019531,244.3719940185547 495.2829895019531,253.35800170898438 L495.2829895019531,472.94000244140625 C495.2829895019531,473.5406188964844 495.3164367675781,474.1336364746094 495.3816223144531,474.7173767089844 C480.5876159667969,480.96759033203125 470.2409973144531,495.3082580566406 470.2409973144531,512 C470.2409973144531,519.6157836914062 472.3948974609375,526.7421264648438 476.1423645019531,532.8339233398438 L374.9530029296875,616.5609741210938 C371.58709716796875,619.3012084960938 369.4820556640625,623.2938232421875 369.1226501464844,627.6192016601562 C368.76324462890625,631.944580078125 370.1805114746094,636.2298583984375 373.0480041503906,639.4879760742188 C379.02801513671875,646.3330078125 389.58099365234375,647.1630249023438 396.6159973144531,641.3410034179688 L498.4989929199219,557.041015625 C500.3216857910156,555.55712890625 501.7746276855469,553.7059326171875 502.7808532714844,551.6336059570312 C505.74676513671875,552.2838134765625 508.8321838378906,552.6270141601562 512,552.6270141601562 C535.0628662109375,552.6270141601562 553.7589721679688,534.4376831054688 553.7589721679688,512 C553.7589721679688,495.3082580566406 543.412353515625,480.96759033203125 528.6183471679688,474.7173767089844 C528.6835327148438,474.1336364746094 528.7169799804688,473.5406188964844 528.7169799804688,472.94000244140625 Z" fill="#FFF" fill-rule="nonzero"/>
  <path d="M470.2409973144531,512 C470.2409973144531,495.3082580566406 480.5876159667969,480.96759033203125 495.3816223144531,474.7173767089844 C496.2916259765625,482.8658752441406 503.3860778808594,489.20599365234375 512,489.20599365234375 C520.6139526367188,489.20599365234375 527.7083740234375,482.86590576171875 528.6183471679688,474.7173767089844 C543.412353515625,480.96759033203125 553.7589721679688,495.3082580566406 553.7589721679688,512 C553.7589721679688,534.4376831054688 535.0628662109375,552.6270141601562 512,552.6270141601562 C508.8321838378906,552.6270141601562 505.74676513671875,552.2838134765625 502.7808532714844,551.6336059570312 C503.6329040527344,549.8788452148438 504.1646423339844,547.9654541015625 504.329345703125,545.9821166992188 C504.6885681152344,541.656494140625 503.27093505859375,537.37109375 500.40301513671875,534.1129760742188 C494.4230041503906,527.2680053710938 483.8710021972656,526.43798828125 476.83599853515625,532.260009765625 L476.1423645019531,532.8339233398438 C472.3948974609375,526.7421264648438 470.2409973144531,519.6157836914062 470.2409973144531,512 Z" fill="#5B5144" fill-rule="nonzero"/>
  <path d="M528.717,472.94 C528.717,481.925 521.231,489.206 512,489.206 C502.769,489.206 495.283,481.925 495.283,472.94 L495.283,253.358 C495.283,244.372 502.769,237.092 512,237.092 C521.231,237.092 528.717,244.372 528.717,253.358 L528.717,472.94 Z M476.836,532.26 C483.871,526.438 494.423,527.268 500.403,534.113 C503.2709278451497,537.3710753811117 504.6885576639536,541.6564853040452 504.3293466448564,545.9821104331738 C503.97013562575916,550.3077355623024 501.86505576264017,554.3006106267928 498.499,557.041 L396.616,641.341 C389.581,647.163 379.028,646.333 373.048,639.488 C370.1805106476099,636.2298434440762 368.76325053690334,631.9445802947472 369.1226455484949,627.6192000161332 C369.48204056008655,623.293819737519 371.587106203835,619.3012259545371 374.953,616.561 L476.836,532.26 Z" fill="#5B5144" fill-rule="nonzero"/>
</svg>
