<?xml version='1.0' encoding='UTF-8'?>
<svg xmlns="http://www.w3.org/2000/svg" width="800" height="800" viewBox="0 0 1024 1024">
  <path d="M871.0349731445312,181.35000610351562 L871.9099731445312,181.35000610351562 L871.9099731445312,218.4290008544922 L642.8209838867188,218.4290008544922 C611.947998046875,218.4290008544922 586.6599731445312,241.33099365234375 582.4000244140625,271.0270080566406 L581.7860107421875,271.0270080566406 L581.7860107421875,277.1050109863281 C581.75,277.9960021972656 581.5189819335938,278.8299865722656 581.5189819335938,279.72601318359375 L581.5189819335938,330.5320129394531 L200.97999572753906,330.5320129394531 C170.10699462890625,330.5320129394531 144.81900024414062,353.4339904785156 140.5590057373047,383.1300048828125 L139.94500732421875,383.1300048828125 L139.94500732421875,389.2070007324219 C139.90899658203125,390.0979919433594 139.6790008544922,390.9320068359375 139.6790008544922,391.8280029296875 L139.6790008544922,547.260986328125 C139.6790008544922,548.156982421875 139.9040069580078,548.9920043945312 139.94500732421875,549.8829956054688 L139.94500732421875,805.5759887695312 L105.6969985961914,805.5759887695312 C74.8239974975586,805.5759887695312 49.53099822998047,782.6740112304688 45.2760009765625,752.97802734375 L44.6619987487793,752.97802734375 L44.6619987487793,746.9000244140625 C44.62099838256836,746.010009765625 44.395999908447266,745.1749877929688 44.395999908447266,744.2789916992188 L44.395999908447266,743.9210205078125 L39.05500030517578,743.9210205078125 L39.05500030517578,460.20599365234375 C39.013999938964844,459.31500244140625 38.78900146484375,458.4809875488281 38.78900146484375,457.5849914550781 L38.78900146484375,302.1520080566406 C38.78900146484375,301.2560119628906 39.02000045776367,300.4209899902344 39.05500030517578,299.5299987792969 L39.05500030517578,293.4530029296875 L39.66999816894531,293.4530029296875 C43.93000030517578,263.7569885253906 69.21700286865234,240.85499572753906 100.09100341796875,240.85499572753906 L480.6300048828125,240.85499572753906 L480.6300048828125,190.0489959716797 C480.6300048828125,189.1529998779297 480.8599853515625,188.31900024414062 480.89599609375,187.42799377441406 L480.89599609375,181.35000610351562 L481.510009765625,181.35000610351562 C485.7699890136719,151.6540069580078 511.0580139160156,128.7530059814453 541.9320068359375,128.7530059814453 L810.614013671875,128.7530059814453 C841.4869995117188,128.7530059814453 866.780029296875,151.6540069580078 871.0349731445312,181.35000610351562 Z" fill="#928B82" fill-rule="nonzero"/>
  <path d="M971.9240112304688,271.0270080566406 L972.7999877929688,271.0270080566406 L972.7999877929688,842.655029296875 L971.9240112304688,842.655029296875 C967.6699829101562,872.3510131835938 942.3770141601562,895.2520141601562 911.5029907226562,895.2520141601562 L206.58700561523438,895.2520141601562 C175.71299743652344,895.2520141601562 150.4199981689453,872.3510131835938 146.16600036621094,842.655029296875 L145.55099487304688,842.655029296875 L145.55099487304688,836.5770263671875 C145.50999450683594,835.6859741210938 145.28500366210938,834.8519897460938 145.28500366210938,833.9559936523438 L145.28500366210938,833.5969848632812 L139.94500732421875,833.5969848632812 L139.94500732421875,549.8829956054688 C139.9040069580078,548.9920043945312 139.6790008544922,548.156982421875 139.6790008544922,547.260986328125 L139.6790008544922,391.8280029296875 C139.6790008544922,390.9320068359375 139.90899658203125,390.0979919433594 139.94500732421875,389.2070007324219 L139.94500732421875,383.1300048828125 L140.5590057373047,383.1300048828125 C144.81900024414062,353.4339904785156 170.10699462890625,330.5320129394531 200.97999572753906,330.5320129394531 L581.5189819335938,330.5320129394531 L581.5189819335938,279.72601318359375 C581.5189819335938,278.8299865722656 581.75,277.9960021972656 581.7860107421875,277.1050109863281 L581.7860107421875,271.0270080566406 L582.4000244140625,271.0270080566406 C586.6599731445312,241.33099365234375 611.947998046875,218.4290008544922 642.8209838867188,218.4290008544922 L911.5029907226562,218.4290008544922 C942.3770141601562,218.4290008544922 967.6699829101562,241.33099365234375 971.9240112304688,271.0270080566406 Z M215.48500061035156,429.7879943847656 L215.48500061035156,483.50201416015625 L578.1610107421875,483.50201416015625 L578.1610107421875,429.7879943847656 Z M215.48500061035156,533.47802734375 L215.48500061035156,587.1920166015625 L578.1610107421875,587.1920166015625 L578.1610107421875,533.47802734375 Z" fill="#DCC9A5" fill-rule="nonzero"/>
  <path d="M215.485,429.788 L578.161,429.788 L578.161,483.502 L215.485,483.502 Z M215.485,533.478 L578.161,533.478 L578.161,587.192 L215.485,587.192 Z" fill="#928B82" fill-rule="nonzero"/>
</svg>
