<?xml version='1.0' encoding='UTF-8'?>
<svg xmlns="http://www.w3.org/2000/svg" width="800" height="800" viewBox="0 0 1024 1024">
  <path d="M29.76300048828125,517.4840087890625 C29.76300048828125,249.6049041748047 246.92190551757812,32.44599914550781 514.801025390625,32.44599914550781 C782.6801147460938,32.44599914550781 999.8389892578125,249.6049041748047 999.8389892578125,517.4840087890625 C999.8389892578125,785.3630981445312 782.6801147460938,1002.52197265625 514.801025390625,1002.52197265625 C246.92190551757812,1002.52197265625 29.76300048828125,785.3630981445312 29.76300048828125,517.4840087890625 Z M777.2470092773438,581.7960205078125 C777.2470092773438,530.5549926757812 757.2940063476562,482.385986328125 721.0549926757812,446.1570129394531 L586.1220092773438,311.2239990234375 C511.3290100097656,236.43099975585938 389.6319885253906,236.43099975585938 314.8389892578125,311.2239990234375 L308.5360107421875,317.5270080566406 C272.302001953125,353.7560119628906 252.3489990234375,401.92498779296875 252.3489990234375,453.1659851074219 C252.3489990234375,504.4070129394531 272.3070068359375,552.5759887695312 308.5360107421875,588.7999877929688 L443.4739990234375,723.7379760742188 C518.2670288085938,798.531005859375 639.968994140625,798.531005859375 714.7520141601562,723.7379760742188 L721.0549926757812,717.4349975585938 C757.2940063476562,681.2059936523438 777.2470092773438,633.031982421875 777.2470092773438,581.7960205078125 Z" fill="#C8C6C4" fill-rule="nonzero"/>
  <path d="M777.2470092773438,581.7960205078125 C777.2470092773438,633.031982421875 757.2940063476562,681.2059936523438 721.0549926757812,717.4349975585938 L714.7520141601562,723.7379760742188 C639.968994140625,798.531005859375 518.2670288085938,798.531005859375 443.4739990234375,723.7379760742188 L308.5360107421875,588.7999877929688 C272.3070068359375,552.5759887695312 252.3489990234375,504.4070129394531 252.3489990234375,453.1659851074219 C252.3489990234375,401.92498779296875 272.302001953125,353.7560119628906 308.5360107421875,317.5270080566406 L314.8389892578125,311.2239990234375 C389.6319885253906,236.43099975585938 511.3290100097656,236.43099975585938 586.1220092773438,311.2239990234375 L721.0549926757812,446.1570129394531 C757.2940063476562,482.385986328125 777.2470092773438,530.5549926757812 777.2470092773438,581.7960205078125 Z M448.0409851074219,435.8299865722656 C456.5249938964844,426.552001953125 456.2380065917969,412.4830017089844 447.406005859375,404.4079895019531 L414.5509948730469,374.364013671875 C405.718994140625,366.2850036621094 391.67999267578125,367.25201416015625 383.1960144042969,376.5299987792969 C374.7120056152344,385.802001953125 374.9989929199219,399.87200927734375 383.83099365234375,407.95098876953125 L416.6860046386719,437.9960021972656 C425.51800537109375,446.07501220703125 439.5570068359375,445.10699462890625 448.0409851074219,435.8299865722656 Z" fill="#FFF" fill-rule="nonzero"/>
  <path d="M448.041,435.83 C439.557,445.107 425.518,446.075 416.686,437.996 L383.831,407.951 C374.999,399.872 374.712,385.802 383.196,376.53 C391.68,367.252 405.719,366.285 414.551,374.364 L447.406,404.408 C456.238,412.483 456.525,426.552 448.041,435.83 Z" fill="#928B82" fill-rule="nonzero"/>
</svg>
