<?xml version='1.0' encoding='UTF-8'?>
<svg xmlns="http://www.w3.org/2000/svg" width="800" height="800" viewBox="0 0 1024 1024">
  <path d="M945.6790161132812,248.3560028076172 C964.5260009765625,248.3560028076172 979.8040161132812,262.7330017089844 979.8040161132812,280.4739990234375 L979.8040161132812,883.281982421875 C979.8040161132812,901.0180053710938 964.5260009765625,915.4000244140625 945.6790161132812,915.4000244140625 L75.25399780273438,915.4000244140625 C56.402000427246094,915.4000244140625 41.12900161743164,901.0180053710938 41.12900161743164,883.281982421875 L41.12900161743164,280.4739990234375 C41.12900161743164,262.7380065917969 56.402000427246094,248.3560028076172 75.25399780273438,248.3560028076172 L422.2409973144531,248.3560028076172 L422.2409973144531,299.135986328125 L598.6920166015625,299.135986328125 L598.6920166015625,248.3560028076172 Z M869.427001953125,306.7900085449219 L151.50599670410156,306.7900085449219 C135.95599365234375,306.7900085449219 123.36100006103516,318.65301513671875 123.36100006103516,333.281005859375 L123.36100006103516,830.47900390625 C123.36100006103516,845.1069946289062 135.96200561523438,856.969970703125 151.50599670410156,856.969970703125 L869.427001953125,856.969970703125 C884.9719848632812,856.969970703125 897.5770263671875,845.1069946289062 897.5770263671875,830.47900390625 L897.5770263671875,333.281005859375 C897.5770263671875,318.64801025390625 884.9719848632812,306.7900085449219 869.427001953125,306.7900085449219 Z" fill="#CE6A6A" fill-rule="nonzero"/>
  <path d="M869.427001953125,306.7900085449219 C884.9719848632812,306.7900085449219 897.5770263671875,318.64801025390625 897.5770263671875,333.281005859375 L897.5770263671875,830.47900390625 C897.5770263671875,845.1069946289062 884.9719848632812,856.969970703125 869.427001953125,856.969970703125 L151.50599670410156,856.969970703125 C135.96200561523438,856.969970703125 123.36100006103516,845.1069946289062 123.36100006103516,830.47900390625 L123.36100006103516,333.281005859375 C123.36100006103516,318.65301513671875 135.95599365234375,306.7900085449219 151.50599670410156,306.7900085449219 Z M448.260986328125,419.4200134277344 L212.822998046875,419.4200134277344 C204.2778778076172,419.4034118652344 197.33709716796875,426.31689453125 197.32000732421875,434.86199951171875 L197.32000732421875,724.6799926757812 C197.3343505859375,733.2262573242188 204.27674865722656,740.141357421875 212.822998046875,740.1220092773438 L448.260986328125,740.1220092773438 C456.8061218261719,740.1386108398438 463.74688720703125,733.22509765625 463.7640075683594,724.6799926757812 L463.7640075683594,434.86199951171875 C463.744140625,426.3180236816406 456.80499267578125,419.40618896484375 448.260986328125,419.4200134277344 Z M820.1829833984375,556.0469970703125 C820.1829833984375,545.260009765625 812.93798828125,536.5089721679688 803.9990234375,536.5089721679688 L568.3099975585938,536.5089721679688 C559.3699951171875,536.5089721679688 552.125,545.260009765625 552.125,556.0469970703125 C552.125,566.8400268554688 559.3699951171875,575.5850219726562 568.3099975585938,575.5850219726562 L803.9990234375,575.5850219726562 C812.93798828125,575.5850219726562 820.1829833984375,566.8350219726562 820.1829833984375,556.0469970703125 Z M820.1829833984375,712.3510131835938 C820.1829833984375,701.5579833984375 812.93798828125,692.81298828125 803.9990234375,692.81298828125 L568.3099975585938,692.81298828125 C559.3699951171875,692.81298828125 552.125,701.56298828125 552.125,712.3510131835938 C552.125,723.1439819335938 559.3699951171875,731.8889770507812 568.3099975585938,731.8889770507812 L803.9990234375,731.8889770507812 C812.93798828125,731.8889770507812 820.1829833984375,723.1389770507812 820.1829833984375,712.3510131835938 Z" fill="#F38181" fill-rule="nonzero"/>
  <path d="M820.1829833984375,556.0469970703125 C820.1829833984375,566.8350219726562 812.93798828125,575.5850219726562 803.9990234375,575.5850219726562 L568.3099975585938,575.5850219726562 C559.3699951171875,575.5850219726562 552.125,566.8400268554688 552.125,556.0469970703125 C552.125,545.260009765625 559.3699951171875,536.5089721679688 568.3099975585938,536.5089721679688 L803.9990234375,536.5089721679688 C812.93798828125,536.5089721679688 820.1829833984375,545.260009765625 820.1829833984375,556.0469970703125 Z M820.1829833984375,712.3510131835938 C820.1829833984375,723.1389770507812 812.93798828125,731.8889770507812 803.9990234375,731.8889770507812 L568.3099975585938,731.8889770507812 C559.3699951171875,731.8889770507812 552.125,723.1439819335938 552.125,712.3510131835938 C552.125,701.56298828125 559.3699951171875,692.81298828125 568.3099975585938,692.81298828125 L803.9990234375,692.81298828125 C812.93798828125,692.81298828125 820.1829833984375,701.5579833984375 820.1829833984375,712.3510131835938 Z" fill="#FFF" fill-rule="nonzero"/>
  <path d="M448.260986328125,419.4200134277344 C456.80499267578125,419.40618896484375 463.744140625,426.3180236816406 463.7640075683594,434.86199951171875 L463.7640075683594,724.6799926757812 C463.74688720703125,733.22509765625 456.8061218261719,740.1386108398438 448.260986328125,740.1220092773438 L212.822998046875,740.1220092773438 C204.27674865722656,740.141357421875 197.3343505859375,733.2262573242188 197.32000732421875,724.6799926757812 L197.32000732421875,434.86199951171875 C197.33709716796875,426.31689453125 204.2778778076172,419.4034118652344 212.822998046875,419.4200134277344 Z M356.864013671875,708.27001953125 L398.33599853515625,708.3419799804688 L407.10699462890625,708.3619995117188 L411.33599853515625,708.3670043945312 L406.385009765625,708.4290161132812 L437.8269958496094,708.4849853515625 L437.8370056152344,702.739990234375 C437.8370056152344,702.739990234375 441.010986328125,671.323974609375 393.2669982910156,662.3800048828125 C393.2669982910156,662.3800048828125 357.32000732421875,657.4639892578125 354.8210144042969,647.5670166015625 C354.8210144042969,647.5670166015625 353.4490051269531,646.4669799804688 354.4830017089844,634.9819946289062 C356.68499755859375,610.5399780273438 372.7049865722656,599.0599975585938 379.1919860839844,589.7219848632812 C385.6789855957031,580.3880004882812 386.2430114746094,569.5999755859375 386.2430114746094,569.5999755859375 C386.2430114746094,568.7960205078125 386.1809997558594,567.9559936523438 385.93499755859375,567.1829833984375 C385.4230041503906,565.5239868164062 384.2200012207031,564.6389770507812 383.1709899902344,563.3740234375 C381.9110107421875,561.864013671875 381.76800537109375,560.1079711914062 382.04901123046875,558.2230224609375 C382.59698486328125,554.6190185546875 383.0220031738281,551.030029296875 383.22698974609375,547.3839721679688 C383.6470031738281,539.7449951171875 383.6669921875,531.85498046875 382.36700439453125,524.2930297851562 C382.1820068359375,522.77197265625 381.8550109863281,521.2670288085938 381.46600341796875,519.7930297851562 C380.17498779296875,514.8519897460938 378.0150146484375,510.03399658203125 374.7330017089844,506.0920104980469 C374.7330017089844,506.0920104980469 360.87799072265625,490.5220031738281 318.65301513671875,487.2090148925781 C313.010986328125,486.7640075683594 307.3280029296875,486.97900390625 301.6759948730469,487.2650146484375 C299.1669921875,487.39300537109375 295.0199890136719,487.5060119628906 294.5480041503906,489.9230041503906 C294.2960205078125,491.23309326171875 294.7761535644531,492.34600830078125 295.2456970214844,493.43438720703125 C295.73956298828125,494.5791320800781 296.2217102050781,495.69671630859375 295.8280029296875,496.9880065917969 C295.6289978027344,497.65899658203125 295.2860107421875,498.28900146484375 294.9169921875,498.87701416015625 C293.58599853515625,500.99200439453125 291.6919860839844,502.75299072265625 289.7969970703125,504.35101318359375 C289.7969970703125,504.35101318359375 279.71099853515625,513.1420288085938 279.3320007324219,524.10400390625 C277.7139892578125,533.3090209960938 277.8370056152344,548.0139770507812 279.5060119628906,557.1690063476562 C279.54345703125,557.3740844726562 279.58270263671875,557.5782470703125 279.6217346191406,557.7813110351562 C280.04180908203125,559.9658203125 280.439697265625,562.03515625 278.3179931640625,563.9940185546875 C276.4339904785156,565.718994140625 275.302001953125,566.7069702148438 275.2969970703125,569.405029296875 C275.2969970703125,569.405029296875 275.82000732421875,580.18798828125 282.27099609375,589.552978515625 C288.72698974609375,598.906982421875 304.7070007324219,610.447021484375 306.8210144042969,634.9000244140625 C307.8139953613281,646.385009765625 306.4419860839844,647.47998046875 306.4419860839844,647.47998046875 C303.90301513671875,657.3670043945312 267.94000244140625,662.1539916992188 267.94000244140625,662.1539916992188 C220.69200134277344,670.280029296875 223.2270050048828,702.3560180664062 223.2270050048828,702.3560180664062 L223.2169952392578,708.1010131835938 L342.45098876953125,708.3109741210938 L351.27301025390625,708.260009765625 Z" fill="#FFF" fill-rule="nonzero"/>
  <path d="M356.864013671875,708.27001953125 L351.27301025390625,708.260009765625 L342.45098876953125,708.3109741210938 L223.2169952392578,708.1010131835938 L223.2270050048828,702.3560180664062 C223.2270050048828,702.3560180664062 220.69200134277344,670.280029296875 267.94000244140625,662.1539916992188 C267.94000244140625,662.1539916992188 303.90301513671875,657.3670043945312 306.4419860839844,647.47998046875 C306.4419860839844,647.47998046875 307.8139953613281,646.385009765625 306.8210144042969,634.9000244140625 C304.7070007324219,610.447021484375 288.72698974609375,598.906982421875 282.27099609375,589.552978515625 C275.82000732421875,580.18798828125 275.2969970703125,569.405029296875 275.2969970703125,569.405029296875 C275.302001953125,566.7069702148438 276.4339904785156,565.718994140625 278.3179931640625,563.9940185546875 C280.439697265625,562.03515625 280.04180908203125,559.9658203125 279.6217346191406,557.7813110351562 C279.58270263671875,557.5782470703125 279.54345703125,557.3740844726562 279.5060119628906,557.1690063476562 C277.8370056152344,548.0139770507812 277.7139892578125,533.3090209960938 279.3320007324219,524.10400390625 C279.71099853515625,513.1420288085938 289.7969970703125,504.35101318359375 289.7969970703125,504.35101318359375 C291.6919860839844,502.75299072265625 293.58599853515625,500.99200439453125 294.9169921875,498.87701416015625 C295.2860107421875,498.28900146484375 295.6289978027344,497.65899658203125 295.8280029296875,496.9880065917969 C296.2217102050781,495.69671630859375 295.73956298828125,494.5791320800781 295.2456970214844,493.43438720703125 C294.7761535644531,492.34600830078125 294.2960205078125,491.23309326171875 294.5480041503906,489.9230041503906 C295.0199890136719,487.5060119628906 299.1669921875,487.39300537109375 301.6759948730469,487.2650146484375 C307.3280029296875,486.97900390625 313.010986328125,486.7640075683594 318.65301513671875,487.2090148925781 C360.87799072265625,490.5220031738281 374.7330017089844,506.0920104980469 374.7330017089844,506.0920104980469 C378.0150146484375,510.03399658203125 380.17498779296875,514.8519897460938 381.46600341796875,519.7930297851562 C381.8550109863281,521.2670288085938 382.1820068359375,522.77197265625 382.36700439453125,524.2930297851562 C383.6669921875,531.85498046875 383.6470031738281,539.7449951171875 383.22698974609375,547.3839721679688 C383.0220031738281,551.030029296875 382.59698486328125,554.6190185546875 382.04901123046875,558.2230224609375 C381.76800537109375,560.1079711914062 381.9110107421875,561.864013671875 383.1709899902344,563.3740234375 C384.2200012207031,564.6389770507812 385.4230041503906,565.5239868164062 385.93499755859375,567.1829833984375 C386.1809997558594,567.9559936523438 386.2430114746094,568.7960205078125 386.2430114746094,569.5999755859375 C386.2430114746094,569.5999755859375 385.6789855957031,580.3880004882812 379.1919860839844,589.7219848632812 C372.7049865722656,599.0599975585938 356.68499755859375,610.5399780273438 354.4830017089844,634.9819946289062 C353.4490051269531,646.4669799804688 354.8210144042969,647.5670166015625 354.8210144042969,647.5670166015625 C357.32000732421875,657.4639892578125 393.2669982910156,662.3800048828125 393.2669982910156,662.3800048828125 C441.010986328125,671.323974609375 437.8370056152344,702.739990234375 437.8370056152344,702.739990234375 L437.8269958496094,708.4849853515625 L406.385009765625,708.4290161132812 L411.33599853515625,708.3670043945312 L407.10699462890625,708.3619995117188 L398.33599853515625,708.3419799804688 Z" fill="#C4BCB1" fill-rule="nonzero"/>
  <path d="M422.2409973144531,204.93800354003906 L463.00201416015625,204.93800354003906 L463.00201416015625,225.0240020751953 L557.9320068359375,225.0240020751953 L557.9320068359375,204.93800354003906 L598.6920166015625,204.93800354003906 L598.6920166015625,299.135986328125 L422.2409973144531,299.135986328125 Z" fill="#CE6A6A" fill-rule="nonzero"/>
  <path d="M463.002,108.595 L557.932,108.595 L557.932,225.024 L463.002,225.024 Z" fill="#C4BCB1" fill-rule="nonzero"/>
</svg>
