<?xml version='1.0' encoding='UTF-8'?>
<svg xmlns="http://www.w3.org/2000/svg" width="800" height="800" viewBox="0 0 1024 1024">
  <path d="M741.2890014648438,42.930999755859375 L741.2890014648438,981.0689697265625 L636.0679931640625,981.0689697265625 C635.0540161132812,981.0689697265625 634.1069946289062,980.8079833984375 633.0980224609375,980.7670288085938 L162.8159942626953,980.7670288085938 L162.8159942626953,862.3820190429688 L343.95599365234375,862.3820190429688 L343.95599365234375,775.8690185546875 L162.8159942626953,775.8690185546875 L162.8159942626953,657.6329956054688 L343.95599365234375,657.6329956054688 L343.95599365234375,571.1209716796875 L162.8159942626953,571.1209716796875 L162.8159942626953,452.8789978027344 L343.95599365234375,452.8789978027344 L343.95599365234375,366.36700439453125 L162.8159942626953,366.36700439453125 L162.8159942626953,248.13099670410156 L343.95599365234375,248.13099670410156 L343.95599365234375,161.6179962158203 L162.8159942626953,161.6179962158203 L162.8159942626953,42.930999755859375 Z M822.1439819335938,43.93000030517578 C855.8079833984375,48.75299835205078 881.77197265625,77.42500305175781 881.77197265625,112.42500305175781 L881.77197265625,911.5750122070312 C881.77197265625,946.5750122070312 855.802978515625,975.2420043945312 822.1389770507812,980.0700073242188 L822.1389770507812,980.7670288085938 L815.2470092773438,980.7670288085938 C814.2440185546875,980.81298828125 813.2969970703125,981.0689697265625 812.2780151367188,981.0689697265625 L783.5390014648438,981.0689697265625 L783.5390014648438,42.930999755859375 L822.1439819335938,42.930999755859375 Z" fill="#F38181" fill-rule="nonzero"/>
  <path d="M142.228,161.618 L343.956,161.618 L343.956,248.131 L142.228,248.131 Z M142.228,366.367 L343.956,366.367 L343.956,452.879 L142.228,452.879 Z M142.228,571.121 L343.956,571.121 L343.956,657.633 L142.228,657.633 Z M142.228,775.869 L343.956,775.869 L343.956,862.382 L142.228,862.382 Z M741.289,30.372 L783.539,30.372 L783.539,993.633 L741.289,993.633 Z" fill="#CE6A6A" fill-rule="nonzero"/>
</svg>
