<?xml version='1.0' encoding='UTF-8'?>
<svg xmlns="http://www.w3.org/2000/svg" width="800" height="800" viewBox="0 0 1024 1024">
  <path d="M36.01900100708008,510.2179870605469 C36.01900100708008,248.70123291015625 248.02023315429688,36.70000076293945 509.5369873046875,36.70000076293945 C771.0537719726562,36.70000076293945 983.0549926757812,248.70123291015625 983.0549926757812,510.2179870605469 C983.0549926757812,771.7347412109375 771.0537719726562,983.7360229492188 509.5369873046875,983.7360229492188 C248.02023315429688,983.7360229492188 36.01900100708008,771.7347412109375 36.01900100708008,510.2179870605469 Z M103.07599639892578,510.2179870605469 C103.07599639892578,734.7005004882812 285.0550231933594,916.6795043945312 509.5375061035156,916.6795043945312 C734.02001953125,916.6795043945312 915.9990234375,734.7005004882812 915.9990234375,510.2179870605469 C915.9990234375,285.7355041503906 734.02001953125,103.7564926147461 509.5375061035156,103.7564926147461 C285.0550231933594,103.7564926147461 103.07599639892578,285.7355041503906 103.07599639892578,510.2179870605469 Z" fill="#EEDBC3" fill-rule="nonzero"/>
  <path d="M103.07599639892578,510.2179870605469 C103.07599639892578,285.7355041503906 285.0550231933594,103.7564926147461 509.5375061035156,103.7564926147461 C734.02001953125,103.7564926147461 915.9990234375,285.7355041503906 915.9990234375,510.2179870605469 C915.9990234375,734.7005004882812 734.02001953125,916.6795043945312 509.5375061035156,916.6795043945312 C285.0550231933594,916.6795043945312 103.07599639892578,734.7005004882812 103.07599639892578,510.2179870605469 Z M759.1320190429688,550.5380249023438 C728.218017578125,501.4630126953125 673.9000244140625,468.6180114746094 611.6099853515625,468.6180114746094 C545.3209838867188,468.6180114746094 487.75201416015625,505.6099853515625 458.1679992675781,560.0150146484375 L456.6990051269531,560.0150146484375 C486.1289978027344,614.93798828125 544.0360107421875,652.3189697265625 610.7080078125,652.3189697265625 C673.8480224609375,652.3189697265625 728.7760009765625,618.5570068359375 759.4500122070312,568.3560180664062 C776.949462890625,594.2085571289062 804.3280029296875,611.7083740234375 835.1389770507812,616.7349853515625 L835.1389770507812,500.71600341796875 C803.3280029296875,506.0559997558594 776.114990234375,524.5999755859375 759.1320190429688,550.5380249023438 Z M251.3249969482422,352.3169860839844 C251.3249969482422,378.3575134277344 272.43499755859375,399.4674987792969 298.4754943847656,399.4674987792969 C324.5159912109375,399.4674987792969 345.6260070800781,378.3575134277344 345.6260070800781,352.3169860839844 C345.6260070800781,326.2764892578125 324.5159912109375,305.16650390625 298.4754943847656,305.16650390625 C272.43499755859375,305.16650390625 251.3249969482422,326.2764892578125 251.3249969482422,352.3169860839844 Z M372.864013671875,452.8999938964844 C372.864013671875,467.3665466308594 384.5914611816406,479.093994140625 399.0580139160156,479.093994140625 C413.5245361328125,479.093994140625 425.25201416015625,467.3665466308594 425.25201416015625,452.8999938964844 C425.25201416015625,438.4334411621094 413.5245361328125,426.70599365234375 399.0580139160156,426.70599365234375 C384.5914611816406,426.70599365234375 372.864013671875,438.4334411621094 372.864013671875,452.8999938964844 Z" fill="#78CEF4" fill-rule="nonzero"/>
  <path d="M759.1320190429688,550.5380249023438 C776.114990234375,524.5999755859375 803.3280029296875,506.0559997558594 835.1389770507812,500.71600341796875 L835.1389770507812,616.7349853515625 C804.3280029296875,611.7083740234375 776.949462890625,594.2085571289062 759.4500122070312,568.3560180664062 C728.7760009765625,618.5570068359375 673.8480224609375,652.3189697265625 610.7080078125,652.3189697265625 C544.0360107421875,652.3189697265625 486.1289978027344,614.93798828125 456.6990051269531,560.0150146484375 L458.1679992675781,560.0150146484375 C487.75201416015625,505.6099853515625 545.3209838867188,468.6180114746094 611.6099853515625,468.6180114746094 C673.9000244140625,468.6180114746094 728.218017578125,501.4630126953125 759.1320190429688,550.5380249023438 Z M527.2830200195312,547.7169799804688 C537.9429931640625,554.7009887695312 550.3280029296875,558.719970703125 563.552978515625,558.7249755859375 C576.8350219726562,558.7249755859375 589.2659912109375,554.6699829101562 599.9559936523438,547.635009765625 L592.7369995117188,534.4769897460938 C584.8930053710938,539.22802734375 573.0150146484375,543.6209716796875 563.5579833984375,543.6209716796875 C554.1530151367188,543.6209716796875 542.6019897460938,539.4180297851562 534.7890014648438,534.7169799804688 Z" fill="#FCE38A" fill-rule="nonzero"/>
  <path d="M372.864013671875,452.8999938964844 C372.864013671875,438.4334411621094 384.5914611816406,426.70599365234375 399.0580139160156,426.70599365234375 C413.5245361328125,426.70599365234375 425.25201416015625,438.4334411621094 425.25201416015625,452.8999938964844 C425.25201416015625,467.3665466308594 413.5245361328125,479.093994140625 399.0580139160156,479.093994140625 C384.5914611816406,479.093994140625 372.864013671875,467.3665466308594 372.864013671875,452.8999938964844 Z" fill="#FFF" fill-rule="nonzero"/>
  <path d="M251.3249969482422,352.3169860839844 C251.3249969482422,326.2764892578125 272.43499755859375,305.16650390625 298.4754943847656,305.16650390625 C324.5159912109375,305.16650390625 345.6260070800781,326.2764892578125 345.6260070800781,352.3169860839844 C345.6260070800781,378.3575134277344 324.5159912109375,399.4674987792969 298.4754943847656,399.4674987792969 C272.43499755859375,399.4674987792969 251.3249969482422,378.3575134277344 251.3249969482422,352.3169860839844 Z" fill="#FFF" fill-rule="nonzero"/>
  <path d="M527.283,547.717 L534.789,534.717 C542.602,539.418 554.153,543.621 563.558,543.621 C573.015,543.621 584.893,539.228 592.737,534.477 L599.956,547.635 C589.266,554.67 576.835,558.725 563.553,558.725 C550.328,558.72 537.943,554.701 527.283,547.717 Z" fill="#5B5144" fill-rule="nonzero"/>
</svg>
